<?xml version="1.0" ?><svg id="Layer_1" style="enable-background:new 0 0 32 32;" version="1.1" viewBox="0 0 32 32" xml:space="preserve" xmlns="http://www.w3.org/2000/svg" xmlns:xlink="http://www.w3.org/1999/xlink"><style type="text/css">
	.st0{fill:#222A30;}
	.st1{fill:#868687;}
	.st2{fill-rule:evenodd;clip-rule:evenodd;fill:#222A30;stroke:#222A30;stroke-width:0.776;}
	.st3{fill-rule:evenodd;clip-rule:evenodd;fill:#222A30;fill-opacity:0;stroke:#222A30;stroke-width:0.776;}
	.st4{fill:none;stroke:#222A30;stroke-width:1.5556;stroke-opacity:0.5;}
	.st5{fill:none;stroke:#222A30;stroke-width:1.5556;}
	.st6{fill:#070707;}
</style><path class="st0" d="M7.6,2C6.1,2,4.8,3.3,4.8,4.8v22.4c0,1.5,1.3,2.8,2.8,2.8h16.8c1.5,0,2.8-1.3,2.8-2.8V10.5  c0-0.1,0-0.1-0.1-0.2l-8.2-8.2C18.8,2,18.8,2,18.7,2H7.6z M17.4,11.5V4.8c0-0.2,0.3-0.4,0.5-0.2l6.7,6.7c0.2,0.2,0.1,0.5-0.2,0.5  h-6.7C17.5,11.8,17.4,11.7,17.4,11.5z" id="drive-file_1_"/></svg>