<?xml version="1.0" ?><svg id="blue_copy" style="enable-background:new 0 0 100 100;" version="1.1" viewBox="0 0 100 100" xml:space="preserve" xmlns="http://www.w3.org/2000/svg" xmlns:xlink="http://www.w3.org/1999/xlink"><g id="Layer_6_copy"><path d="M68.251,72.84H30.749c-2.258,0-4.089-1.831-4.089-4.089V31.249c0-2.258,1.831-4.089,4.089-4.089h37.502   c2.258,0,4.089,1.831,4.089,4.089v37.502C72.34,71.009,70.509,72.84,68.251,72.84z"/><path d="M68.993,27.235c0.821,0.748,1.346,1.815,1.346,3.014v37.502c0,2.258-1.831,4.089-4.089,4.089H28.749   c-0.254,0-0.501-0.03-0.742-0.075c0.726,0.661,1.683,1.075,2.742,1.075h37.502c2.258,0,4.089-1.831,4.089-4.089V31.249   C72.34,29.245,70.896,27.585,68.993,27.235z"/><path d="M68.251,72.84H30.749c-2.258,0-4.089-1.831-4.089-4.089V31.249   c0-2.258,1.831-4.089,4.089-4.089h37.502c2.258,0,4.089,1.831,4.089,4.089v37.502C72.34,71.009,70.509,72.84,68.251,72.84z" style="fill:none;stroke:#000000;stroke-miterlimit:10;"/></g></svg>